<svg width="47" height="47" viewBox="0 0 47 47" fill="none" xmlns="http://www.w3.org/2000/svg">
<g clip-path="url(#clip0_3_257)">
<path d="M23.5297 23.5025L1.2337 16.2423C2.71234 11.4937 5.67997 7.34903 9.6963 4.42319C13.7126 1.49735 18.5637 -0.0537544 23.5297 9.13197e-06V23.5025Z" fill="#171E27" fill-opacity="0.6"/>
<path d="M23.5296 23.5025L37.3234 42.5139C32.2885 46.1772 26.0069 47.6872 19.8605 46.7119C13.714 45.7366 8.20608 42.3558 4.54827 37.3132C2.31857 34.3398 0.849402 30.8651 0.269026 27.1922C-0.31135 23.5193 0.0147052 19.7599 1.21873 16.2423L23.5296 23.5025Z" fill="#171E27" fill-opacity="0.8"/>
<path d="M23.5297 23.5025L37.3235 4.49109C39.8164 6.30462 41.9281 8.59232 43.5381 11.2235C45.148 13.8546 46.2246 16.7777 46.7063 19.8257C47.1881 22.8737 47.0655 25.9869 46.3457 28.9875C45.6258 31.988 44.3228 34.8171 42.5111 37.3132C41.08 39.3213 39.3271 41.0786 37.3235 42.5139L23.5297 23.5025Z" fill="#A9C2CB" fill-opacity="0.6"/>
<path d="M23.5297 23.5025V-7.55489e-06C28.4938 -0.0766497 33.3437 1.49369 37.3235 4.46626L23.5297 23.5025Z" fill="#171E27" fill-opacity="0.2"/>
</g>
<defs>
<clipPath id="clip0_3_257">
<rect width="47" height="47" fill="white"/>
</clipPath>
</defs>
</svg>
