<svg width="95" height="49" viewBox="0 0 95 49" fill="none" xmlns="http://www.w3.org/2000/svg">
<g clip-path="url(#clip0_3_232)">
<path d="M94.7511 0.273682H0.248901V48.7213H94.7511V0.273682Z" stroke="#A9C2CB" stroke-miterlimit="10"/>
<path d="M9.86688 0.273682V48.7213" stroke="#A9C2CB" stroke-miterlimit="10"/>
<path d="M20.839 0.273682V48.7213" stroke="#A9C2CB" stroke-miterlimit="10"/>
<path d="M31.816 0.273682V48.7213" stroke="#A9C2CB" stroke-miterlimit="10"/>
<path d="M42.7881 0.273682V48.7213" stroke="#A9C2CB" stroke-miterlimit="10"/>
<path d="M53.7601 0.273682V48.7213" stroke="#A9C2CB" stroke-miterlimit="10"/>
<path d="M64.7372 0.273682V48.7213" stroke="#A9C2CB" stroke-miterlimit="10"/>
<path d="M75.7093 0.273682V48.7213" stroke="#A9C2CB" stroke-miterlimit="10"/>
<path d="M86.6813 0.273682V48.7213" stroke="#A9C2CB" stroke-miterlimit="10"/>
<path d="M94.7511 0.273682H0.248901" stroke="#A9C2CB" stroke-width="1.11" stroke-miterlimit="10"/>
<path d="M94.7511 7.19543H0.248901" stroke="#A9C2CB" stroke-width="1.11" stroke-miterlimit="10"/>
<path d="M94.7511 14.1173H0.248901" stroke="#A9C2CB" stroke-width="1.11" stroke-miterlimit="10"/>
<path d="M94.7511 21.0391H0.248901" stroke="#A9C2CB" stroke-width="1.11" stroke-miterlimit="10"/>
<path d="M94.7511 27.9609H0.248901" stroke="#A9C2CB" stroke-width="1.11" stroke-miterlimit="10"/>
<path d="M94.7511 34.8777H0.248901" stroke="#A9C2CB" stroke-width="1.11" stroke-miterlimit="10"/>
<path d="M94.7511 41.7996H0.248901" stroke="#A9C2CB" stroke-width="1.11" stroke-miterlimit="10"/>
<path d="M94.7511 48.7213H0.248901" stroke="#A9C2CB" stroke-width="1.11" stroke-miterlimit="10"/>
<path d="M86.6813 13.6993H64.6974L42.8926 20.9396L31.6418 41.6055L20.8489 27.9162L9.86688 41.6055" stroke="url(#paint0_linear_3_232)" stroke-miterlimit="10"/>
<path d="M11.2757 41.6005C11.2757 41.879 11.1931 42.1513 11.0383 42.3829C10.8835 42.6145 10.6635 42.795 10.406 42.9016C10.1486 43.0081 9.86532 43.036 9.59203 42.9817C9.31874 42.9274 9.06771 42.7932 8.87068 42.5963C8.67365 42.3993 8.53947 42.1484 8.48511 41.8752C8.43075 41.6021 8.45865 41.3189 8.56528 41.0616C8.67191 40.8043 8.85249 40.5843 9.08418 40.4296C9.31586 40.2748 9.58825 40.1923 9.86689 40.1923C10.2405 40.1923 10.5989 40.3406 10.8631 40.6047C11.1273 40.8688 11.2757 41.227 11.2757 41.6005Z" fill="url(#paint1_linear_3_232)"/>
<path d="M20.8489 29.3293C21.627 29.3293 22.2578 28.6988 22.2578 27.9211C22.2578 27.1433 21.627 26.5128 20.8489 26.5128C20.0708 26.5128 19.4401 27.1433 19.4401 27.9211C19.4401 28.6988 20.0708 29.3293 20.8489 29.3293Z" fill="url(#paint2_linear_3_232)"/>
<path d="M33.0556 41.6005C33.0566 41.8804 32.9744 42.1544 32.8194 42.3875C32.6644 42.6207 32.4437 42.8026 32.1851 42.9102C31.9266 43.0178 31.6419 43.0462 31.3672 42.9918C31.0925 42.9374 30.8401 42.8027 30.6421 42.6048C30.444 42.4068 30.3093 42.1546 30.2549 41.88C30.2005 41.6054 30.2289 41.3208 30.3365 41.0624C30.4442 40.8039 30.6262 40.5833 30.8594 40.4284C31.0927 40.2735 31.3667 40.1913 31.6468 40.1923C32.02 40.1936 32.3776 40.3424 32.6415 40.6062C32.9054 40.87 33.0543 41.2274 33.0556 41.6005Z" fill="url(#paint3_linear_3_232)"/>
<path d="M44.3015 20.9395C44.3015 21.218 44.2188 21.4903 44.064 21.7219C43.9092 21.9535 43.6892 22.134 43.4318 22.2406C43.1743 22.3471 42.8911 22.375 42.6178 22.3207C42.3445 22.2664 42.0935 22.1322 41.8964 21.9353C41.6994 21.7383 41.5652 21.4874 41.5108 21.2142C41.4565 20.9411 41.4844 20.6579 41.591 20.4006C41.6976 20.1433 41.8782 19.9233 42.1099 19.7686C42.3416 19.6139 42.614 19.5313 42.8926 19.5313C43.0778 19.5306 43.2613 19.5666 43.4325 19.6371C43.6038 19.7077 43.7593 19.8114 43.8903 19.9423C44.0212 20.0732 44.125 20.2287 44.1956 20.3998C44.2661 20.571 44.3021 20.7544 44.3015 20.9395Z" fill="url(#paint4_linear_3_232)"/>
<path d="M64.6974 15.1075C65.4754 15.1075 66.1062 14.477 66.1062 13.6993C66.1062 12.9215 65.4754 12.291 64.6974 12.291C63.9193 12.291 63.2885 12.9215 63.2885 13.6993C63.2885 14.477 63.9193 15.1075 64.6974 15.1075Z" fill="url(#paint5_linear_3_232)"/>
<path d="M88.0952 13.6993C88.0961 13.9798 88.0135 14.2543 87.8579 14.4878C87.7022 14.7213 87.4806 14.9032 87.2211 15.0103C86.9617 15.1174 86.6763 15.1449 86.4012 15.0893C86.1261 15.0337 85.8737 14.8975 85.6763 14.6981C85.4789 14.4986 85.3453 14.245 85.2927 13.9694C85.24 13.6938 85.2705 13.4088 85.3804 13.1507C85.4904 12.8925 85.6747 12.6729 85.9099 12.5198C86.1451 12.3667 86.4206 12.2871 86.7012 12.291C87.0719 12.2963 87.4257 12.4468 87.6864 12.7102C87.9471 12.9735 88.0939 13.3287 88.0952 13.6993Z" fill="url(#paint6_linear_3_232)"/>
</g>
<defs>
<linearGradient id="paint0_linear_3_232" x1="9.67273" y1="27.7519" x2="86.6813" y2="27.7519" gradientUnits="userSpaceOnUse">
<stop stop-color="#171E27"/>
<stop offset="1" stop-color="#A9C2CB"/>
</linearGradient>
<linearGradient id="paint1_linear_3_232" x1="8.45804" y1="41.6055" x2="11.2757" y2="41.6055" gradientUnits="userSpaceOnUse">
<stop stop-color="#171E27"/>
<stop offset="1" stop-color="#A9C2CB"/>
</linearGradient>
<linearGradient id="paint2_linear_3_232" x1="19.4401" y1="27.9211" x2="22.2578" y2="27.9211" gradientUnits="userSpaceOnUse">
<stop stop-color="#171E27"/>
<stop offset="1" stop-color="#A9C2CB"/>
</linearGradient>
<linearGradient id="paint3_linear_3_232" x1="30.2329" y1="41.6055" x2="33.0556" y2="41.6055" gradientUnits="userSpaceOnUse">
<stop stop-color="#A9C2CB"/>
<stop offset="0.0001" stop-color="#171E27"/>
<stop offset="1" stop-color="#A9C2CB"/>
</linearGradient>
<linearGradient id="paint4_linear_3_232" x1="41.4838" y1="20.9395" x2="44.3015" y2="20.9395" gradientUnits="userSpaceOnUse">
<stop stop-color="#171E27"/>
<stop offset="1" stop-color="#A9C2CB"/>
</linearGradient>
<linearGradient id="paint5_linear_3_232" x1="63.2835" y1="13.6993" x2="66.1062" y2="13.6993" gradientUnits="userSpaceOnUse">
<stop stop-color="#171E27"/>
<stop offset="1" stop-color="#A9C2CB"/>
</linearGradient>
<linearGradient id="paint6_linear_3_232" x1="85.2725" y1="13.6993" x2="88.0952" y2="13.6993" gradientUnits="userSpaceOnUse">
<stop stop-color="#171E27"/>
<stop offset="1" stop-color="#A9C2CB"/>
</linearGradient>
<clipPath id="clip0_3_232">
<rect width="95" height="49" fill="white"/>
</clipPath>
</defs>
</svg>
