<svg width="24" height="24" viewBox="0 0 24 24" fill="none" xmlns="http://www.w3.org/2000/svg">
<path fill-rule="evenodd" clip-rule="evenodd" d="M2.37076 2.37076C2.70131 2.04021 3.24704 1.82406 4.10117 1.84789C4.95798 1.8718 6.03534 2.13893 7.27408 2.66983C8.26328 3.09377 9.32669 3.67353 10.4245 4.39444C9.35112 5.23942 8.27832 6.19077 7.23458 7.23451C6.19081 8.27829 5.23943 9.35114 4.39444 10.4245C3.67353 9.32674 3.09377 8.26332 2.66982 7.27412C2.13893 6.03536 1.8718 4.958 1.84789 4.10118C1.82406 3.24704 2.04021 2.70131 2.37076 2.37076ZM8.00132 0.972941C9.27108 1.51713 10.6244 2.27951 12 3.23011C13.3757 2.27951 14.7289 1.51714 15.9987 0.972955C17.3649 0.387448 18.6795 0.0350545 19.8473 0.00246589C21.0179 -0.0301975 22.1295 0.260182 22.9347 1.06534C23.7398 1.87051 24.0302 2.98215 23.9975 4.15269C23.965 5.32055 23.6126 6.63518 23.0271 8.00136C22.4829 9.27113 21.7205 10.6244 20.7699 12.0001C21.7205 13.3757 22.4828 14.7289 23.027 15.9986C23.6125 17.3648 23.9649 18.6794 23.9974 19.8473C24.0301 21.0179 23.7397 22.1295 22.9346 22.9347C22.1294 23.7398 21.0178 24.0302 19.8472 23.9975C18.6794 23.9649 17.3647 23.6126 15.9986 23.027C14.7289 22.4829 13.3756 21.7205 12 20.77C10.6244 21.7205 9.27116 22.4829 8.00143 23.0271C6.63526 23.6126 5.32063 23.965 4.15278 23.9975C2.98224 24.0302 1.8706 23.7398 1.06544 22.9347C0.260278 22.1295 -0.0300992 21.0179 0.00256402 19.8473C0.0351523 18.6795 0.387544 17.3648 0.973047 15.9987C1.51721 14.7289 2.27956 13.3757 3.23011 12.0001C2.2795 10.6244 1.51712 9.27112 0.972936 8.00135C0.387432 6.63517 0.0350411 5.32054 0.00245273 4.15268C-0.0302104 2.98214 0.260167 1.87049 1.06533 1.06533C1.87048 0.260169 2.98213 -0.0302107 4.15267 0.00245276C5.32052 0.0350413 6.63515 0.387435 8.00132 0.972941ZM8.54001 8.53994C9.68097 7.39898 10.8487 6.38365 12 5.50982C13.1513 6.38365 14.319 7.39897 15.46 8.53993C16.601 9.68094 17.6164 10.8487 18.4902 12.0001C17.6164 13.1514 16.6011 14.3191 15.4601 15.4601C14.3191 16.6011 13.1514 17.6164 12 18.4903C10.8486 17.6164 9.6809 16.6011 8.5399 15.4601C7.39895 14.3191 6.38363 13.1514 5.50981 12.0001C6.38366 10.8487 7.39901 9.68095 8.54001 8.53994ZM16.7654 7.2345C17.8092 8.27828 18.7606 9.35113 19.6056 10.4245C20.3265 9.32674 20.9062 8.26333 21.3302 7.27413C21.8611 6.03538 22.1282 4.95802 22.1521 4.1012C22.1759 3.24706 21.9598 2.70132 21.6292 2.37077C21.2987 2.04022 20.753 1.82407 19.8988 1.84791C19.042 1.87181 17.9647 2.13895 16.7259 2.66984C15.7367 3.09378 14.6733 3.67354 13.5756 4.39444C14.6489 5.23942 15.7217 6.19076 16.7654 7.2345ZM16.7655 16.7655C17.8093 15.7218 18.7606 14.649 19.6056 13.5756C20.3264 14.6734 20.9061 15.7367 21.3301 16.7259C21.861 17.9646 22.1281 19.042 22.152 19.8988C22.1758 20.7529 21.9597 21.2987 21.6291 21.6292C21.2986 21.9598 20.7529 22.1759 19.8987 22.1521C19.0419 22.1282 17.9646 21.8611 16.7258 21.3302C15.7366 20.9062 14.6733 20.3265 13.5756 19.6056C14.6489 18.7606 15.7218 17.8093 16.7655 16.7655ZM7.23447 16.7655C8.27824 17.8093 9.35108 18.7606 10.4245 19.6056C9.32672 20.3265 8.26336 20.9062 7.27419 21.3302C6.03545 21.8611 4.9581 22.1282 4.10128 22.1521C3.24715 22.1759 2.70142 21.9598 2.37087 21.6292C2.04032 21.2987 1.82417 20.753 1.848 19.8988C1.87191 19.042 2.13904 17.9646 2.66994 16.7259C3.09386 15.7367 3.67358 14.6734 4.39445 13.5756C5.23941 14.649 6.19075 15.7218 7.23447 16.7655ZM12 14.4617C13.3595 14.4617 14.4615 13.3596 14.4615 12.0002C14.4615 10.6407 13.3595 9.53862 12 9.53862C10.6405 9.53862 9.53846 10.6407 9.53846 12.0002C9.53846 13.3596 10.6405 14.4617 12 14.4617Z" fill="white"/>
</svg>
