<svg width="22" height="24" viewBox="0 0 22 24" fill="none" xmlns="http://www.w3.org/2000/svg">
<path fill-rule="evenodd" clip-rule="evenodd" d="M8.39997 0C7.07449 0 5.99998 1.07451 5.99998 2.39999C5.99998 3.72547 7.07449 4.79998 8.39997 4.79998H13.2C14.5254 4.79998 15.5999 3.72547 15.5999 2.39999C15.5999 1.07451 14.5254 0 13.2 0H8.39997ZM4.19998 2.40006H4C1.79086 2.40006 0 4.19093 0 6.40006V20C0 22.2091 1.79086 24 4 24H17.5999C19.8091 24 21.5999 22.2091 21.5999 20V6.40006C21.5999 4.19093 19.8091 2.40006 17.5999 2.40006H17.3999C17.3999 4.71964 15.5195 6.60003 13.2 6.60003H8.39997C6.08039 6.60003 4.2 4.71964 4.19998 2.40006ZM5.24998 9.59994C5.24998 9.18573 5.58576 8.84994 5.99998 8.84994H15.5999C16.0142 8.84994 16.3499 9.18573 16.3499 9.59994C16.3499 10.0142 16.0142 10.3499 15.5999 10.3499H5.99998C5.58576 10.3499 5.24998 10.0142 5.24998 9.59994ZM5.99998 13.6499C5.58576 13.6499 5.24998 13.9857 5.24998 14.3999C5.24998 14.8141 5.58576 15.1499 5.99998 15.1499H15.5999C16.0142 15.1499 16.3499 14.8141 16.3499 14.3999C16.3499 13.9857 16.0142 13.6499 15.5999 13.6499H5.99998ZM5.24998 19.1999C5.24998 18.7857 5.58576 18.4499 5.99998 18.4499H10.8C11.2142 18.4499 11.55 18.7857 11.55 19.1999C11.55 19.6141 11.2142 19.9499 10.8 19.9499H5.99998C5.58576 19.9499 5.24998 19.6141 5.24998 19.1999Z" fill="white"/>
</svg>
