<svg width="24" height="24" viewBox="0 0 24 24" fill="none" xmlns="http://www.w3.org/2000/svg">
<path fill-rule="evenodd" clip-rule="evenodd" d="M18.3709 0.24607C17.5208 0.752626 17.2295 1.87453 17.7203 2.75191L20.6827 8.04738C21.1735 8.92476 22.2606 9.22537 23.1107 8.71882C23.9608 8.21226 24.2521 7.09036 23.7613 6.21298L20.7989 0.917508C20.3081 0.0401265 19.221 -0.260487 18.3709 0.24607ZM15.9711 3.08834L7.16239 8.33709C6.02889 9.0125 5.64052 10.5084 6.29495 11.6782L6.46393 11.9803C6.45701 11.9841 6.45013 11.9881 6.44327 11.9922L2.07814 14.5932L1.62466 13.7826C1.39077 13.3645 0.862215 13.2152 0.444107 13.449C0.0259996 13.6829 -0.123333 14.2115 0.110563 14.6296L1.88799 17.8069C2.12188 18.225 2.65044 18.3743 3.06855 18.1404C3.48665 17.9065 3.63599 17.378 3.40209 16.9599L2.92547 16.1079L7.3111 13.4947L7.4799 13.7964C8.13433 14.9662 9.58374 15.3671 10.7172 14.6917L12.3021 13.7473L7.69161 22.7365C7.47297 23.1628 7.6413 23.6856 8.06759 23.9042C8.49387 24.1229 9.01669 23.9545 9.23532 23.5282L14.3882 13.4816L19.5411 23.5282C19.7597 23.9545 20.2826 24.1229 20.7088 23.9042C21.1351 23.6856 21.3035 23.1628 21.0848 22.7365L15.4977 11.8432L19.5397 9.43469C19.4021 9.26912 19.2777 9.08873 19.1689 8.89435L16.2065 3.59889C16.1137 3.43299 16.0354 3.26227 15.9711 3.08834Z" fill="white"/>
</svg>
